<svg xmlns="http://www.w3.org/2000/svg" version="1.1" xmlns:xlink="http://www.w3.org/1999/xlink" xmlns:svgjs="http://svgjs.dev/svgjs" width="2000" height="1500" viewBox="0 0 2000 1500"><rect width="2000" height="1500" fill="#ffffff"></rect><g transform="matrix(0.75,0,0,0.75,250,147.375)"><svg viewBox="0 0 448 360" data-background-color="#ffffff" preserveAspectRatio="xMidYMid meet" height="1607" width="2000" xmlns="http://www.w3.org/2000/svg" xmlns:xlink="http://www.w3.org/1999/xlink"><g id="tight-bounds" transform="matrix(1,0,0,1,0,0)"><svg viewBox="0 0 448 360" height="360" width="448"><g><svg></svg></g><g><svg viewBox="0 0 448 360" height="360" width="448"><g><path d="M193.855 44.683c1.378 0 2.494 1.116 2.495 2.494 0 1.378-1.116 2.494-2.495 2.495h-23.846l-17.167 17.167c-0.973 0.973-2.551 0.973-3.53 0-0.973-0.973-0.973-2.551 0-3.529l13.644-13.645h-40.378c-11.518 0-19.151 2.688-23.815 8.113-4.739 5.519-6.66 14.056-6.66 25.63 0 0.069 0 0.137-0.006 0.206l0.212 36.692 14.692-14.692c0.973-0.973 2.551-0.973 3.53 0 0.973 0.973 0.973 2.551 0 3.53l-18.178 18.178c0.206 35.832 0.193 71.358-0.013 107.19 25.486 25.2 50.617 50.312 75.811 75.791h25.38c1.378 0 2.494 1.116 2.495 2.495 0 1.378-1.116 2.494-2.495 2.494h-20.448l25.942 26.241 0.006-0.006c8.188 8.188 15.577 12.859 22.824 13.413 7.146 0.543 14.442-2.956 22.586-11.093l28.555-28.555h-20.722c-1.378 0-2.494-1.116-2.495-2.494 0-1.378 1.116-2.494 2.495-2.495h25.711l16.625-16.625c0.973-0.973 2.551-0.973 3.529 0 0.973 0.973 0.973 2.551 0 3.53l-13.101 13.102h40.377c11.518 0 19.151-2.688 23.815-8.113 4.739-5.519 6.66-14.056 6.66-25.63h0.013l-0.212-36.898-16.014 16.014c-0.973 0.973-2.551 0.973-3.53 0-0.973-0.973-0.973-2.551 0-3.53l19.5-19.5c-0.206-35.832-0.193-71.358 0.013-107.19-25.486-25.2-50.617-50.312-75.811-75.791h-26.147c-1.378 0-2.494-1.116-2.495-2.495 0-1.378 1.116-2.494 2.495-2.494h21.215l-25.824-26.123c-0.044-0.037-0.081-0.075-0.124-0.112-8.188-8.188-15.577-12.859-22.824-13.413-7.146-0.543-14.442 2.956-22.586 11.093l-28.555 28.555h18.858zM122.578 44.683h45.367l32.078-32.078c9.248-9.248 17.81-13.195 26.484-12.534 8.568 0.649 16.956 5.824 25.985 14.854 0.05 0.05 0.094 0.094 0.137 0.143l29.278 29.615h43.508c13.071 0 21.919 3.268 27.594 9.871 5.6 6.517 7.864 16.101 7.864 28.867 0 0.081-0.006 0.156-0.012 0.23l-0.225 39.742 28.43 28.112 0.006-0.006c9.03 9.03 14.206 17.411 14.854 25.985 0.661 8.674-3.293 17.236-12.534 26.484l-30.768 30.768 0.237 41.843h0.012c0 12.765-2.27 22.35-7.864 28.867-5.675 6.604-14.524 9.872-27.594 9.871h-45.366l-32.078 32.078c-9.248 9.248-17.81 13.195-26.484 12.534-8.568-0.649-16.956-5.824-25.985-14.854l0.006-0.006-29.421-29.758h-43.509c-13.071 0-21.919-3.268-27.594-9.872-5.6-6.517-7.864-16.101-7.863-28.866h0.012l0.231-39.972-28.293-27.969c-0.05-0.044-0.1-0.087-0.143-0.137-9.03-9.03-14.206-17.411-14.854-25.985-0.661-8.674 3.293-17.236 12.534-26.484l30.768-30.768-0.237-41.607c-0.006-0.075-0.012-0.156-0.012-0.23 0-12.765 2.27-22.35 7.864-28.867 5.675-6.604 14.524-9.872 27.594-9.871zM87.682 179.997l-0.274-47.724-27.276 27.276c-8.138 8.138-11.636 15.44-11.094 22.587 0.549 7.246 5.226 14.642 13.413 22.823 0.037 0.037 0.081 0.081 0.113 0.125l24.837 24.551 0.281-49.644zM92.303 241.483l-0.2 35.09h0.013c0 11.58 1.921 20.117 6.66 25.63 4.664 5.432 12.297 8.113 23.815 8.113h38.576l-33.55-33.936-35.308-34.903zM325.415 49.672h-38.575l33.549 33.936 35.308 34.902 0.2-34.884c-0.006-0.069-0.006-0.137-0.007-0.205 0-11.58-1.921-20.117-6.66-25.63-4.664-5.432-12.297-8.113-23.815-8.113zM360.599 130.352l-0.281 49.645 0.274 47.724 27.276-27.276c8.138-8.138 11.636-15.44 11.094-22.587-0.549-7.252-5.226-14.642-13.413-22.824l0.006-0.006-24.956-24.669z" fill="#1ebbd7" fill-rule="nonzero" stroke="none" stroke-width="1" stroke-linecap="butt" stroke-linejoin="miter" stroke-miterlimit="10" stroke-dasharray="" stroke-dashoffset="0" font-family="none" font-weight="none" font-size="none" text-anchor="none" style="mix-blend-mode: normal" data-fill-palette-color="tertiary"></path></g><g transform="matrix(1,0,0,1,112,135.4493927125506)"><svg viewBox="0 0 224 89.10121457489878" height="89.10121457489878" width="224"><g><svg viewBox="0 0 224 89.10121457489878" height="89.10121457489878" width="224"><g><svg viewBox="0 0 224 89.10121457489878" height="89.10121457489878" width="224"><g><svg viewBox="0 0 224 89.10121457489878" height="89.10121457489878" width="224"><g id="textblocktransform"><svg viewBox="0 0 224 89.10121457489878" height="89.10121457489878" width="224" id="textblock"><g><svg viewBox="0 0 224 89.10121457489878" height="89.10121457489878" width="224"><g transform="matrix(1,0,0,1,0,0)"><svg width="224" viewBox="3 -38.4 98.79 39.3" height="89.10121457489878" data-palette-color="#1ebbd7"><path d="M27-14.15L27-22.85 15-22.85 15-27.9 27.9-27.9 29.4-37.5 3-37.5 3 0 29.7 0 29.7-9.6 15-9.6 15-14.15 27-14.15ZM61-12.5L61-12.5 67.5 0 54.3 0 49.4-11.15 46.8-11.15 46.8 0 34.8 0 34.8-37.5 53.7-37.5Q66.6-37.5 66.6-24.35L66.6-24.35Q66.6-15.35 61-12.5ZM49.55-27.9L49.55-27.9 46.8-27.9 46.8-20.4 49.55-20.4Q51.75-20.4 52.72-20.85 53.7-21.3 53.7-22.9L53.7-22.9 53.7-25.4Q53.7-27 52.72-27.45 51.75-27.9 49.55-27.9ZM70.19-0.65L70.19-0.65 71.89-10.55Q77.39-9.2 81.84-9.2L81.84-9.2Q84.09-9.2 85.82-9.28 87.54-9.35 88.89-9.55L88.89-9.55 88.89-12.55 83.49-13Q79.84-13.35 77.39-14.2 74.94-15.05 73.47-16.53 71.99-18 71.37-20.08 70.74-22.15 70.74-24.95L70.74-24.95Q70.74-28.8 71.54-31.38 72.34-33.95 74.09-35.52 75.84-37.1 78.62-37.75 81.39-38.4 85.39-38.4L85.39-38.4Q93.34-38.4 99.79-36.9L99.79-36.9 98.29-27.3Q92.69-28.2 89.34-28.2L89.34-28.2Q85.99-28.2 83.64-27.9L83.64-27.9 83.64-24.95 87.94-24.55Q91.89-24.15 94.54-23.23 97.19-22.3 98.82-20.8 100.44-19.3 101.12-17.25 101.79-15.2 101.79-12.55L101.79-12.55Q101.79-8.75 100.79-6.15 99.79-3.55 98.39-2.2L98.39-2.2Q97.24-1.1 95.54-0.48 93.84 0.15 91.94 0.45 90.04 0.75 88.12 0.83 86.19 0.9 84.64 0.9L84.64 0.9Q80.74 0.9 77.14 0.5 73.54 0.1 70.19-0.65Z" opacity="1" transform="matrix(1,0,0,1,0,0)" fill="#1ebbd7" class="wordmark-text-0" data-fill-palette-color="primary" id="text-0"></path></svg></g></svg></g></svg></g></svg></g></svg></g></svg></g></svg></g></svg></g><defs></defs></svg><rect width="448" height="360" fill="none" stroke="none" visibility="hidden"></rect></g></svg></g></svg>